<svg xmlns="http://www.w3.org/2000/svg" xmlns:xlink="http://www.w3.org/1999/xlink" version="1.1" class="marks" width="660" height="514" viewBox="0 0 660 514"><rect width="660" height="514" fill="white"/><g fill="none" stroke-miterlimit="10" transform="translate(54,27)"><g class="mark-group role-frame root" role="graphics-object" aria-roledescription="group mark container"><g transform="translate(0,0)"><path class="background" aria-hidden="true" d="M0.5,0.5h600v450h-600Z" stroke="#ddd"/><g><g class="mark-group role-axis" aria-hidden="true"><g transform="translate(0.5,450.5)"><path class="background" aria-hidden="true" d="M0,0h0v0h0Z" pointer-events="none"/><g><g class="mark-rule role-axis-grid" pointer-events="none"><line transform="translate(144,-450)" x2="0" y2="450" stroke="#ddd" stroke-width="1" opacity="1"/><line transform="translate(246,-450)" x2="0" y2="450" stroke="#ddd" stroke-width="1" opacity="1"/><line transform="translate(349,-450)" x2="0" y2="450" stroke="#ddd" stroke-width="1" opacity="1"/><line transform="translate(452,-450)" x2="0" y2="450" stroke="#ddd" stroke-width="1" opacity="1"/><line transform="translate(41,-450)" x2="0" y2="450" stroke="#ddd" stroke-width="1" opacity="1"/><line transform="translate(92,-450)" x2="0" y2="450" stroke="#ddd" stroke-width="1" opacity="1"/><line transform="translate(195,-450)" x2="0" y2="450" stroke="#ddd" stroke-width="1" opacity="1"/><line transform="translate(298,-450)" x2="0" y2="450" stroke="#ddd" stroke-width="1" opacity="1"/><line transform="translate(401,-450)" x2="0" y2="450" stroke="#ddd" stroke-width="1" opacity="1"/><line transform="translate(503,-450)" x2="0" y2="450" stroke="#ddd" stroke-width="1" opacity="1"/><line transform="translate(555,-450)" x2="0" y2="450" stroke="#ddd" stroke-width="1" opacity="1"/></g></g><path class="foreground" aria-hidden="true" d="" pointer-events="none" display="none"/></g></g><g class="mark-group role-axis" aria-hidden="true"><g transform="translate(0.5,0.5)"><path class="background" aria-hidden="true" d="M0,0h0v0h0Z" pointer-events="none"/><g><g class="mark-rule role-axis-grid" pointer-events="none"><line transform="translate(0,337)" x2="600" y2="0" stroke="#ddd" stroke-width="1" opacity="1"/><line transform="translate(0,225)" x2="600" y2="0" stroke="#ddd" stroke-width="1" opacity="1"/><line transform="translate(0,112)" x2="600" y2="0" stroke="#ddd" stroke-width="1" opacity="1"/><line transform="translate(0,394)" x2="600" y2="0" stroke="#ddd" stroke-width="1" opacity="1"/><line transform="translate(0,281)" x2="600" y2="0" stroke="#ddd" stroke-width="1" opacity="1"/><line transform="translate(0,169)" x2="600" y2="0" stroke="#ddd" stroke-width="1" opacity="1"/><line transform="translate(0,56)" x2="600" y2="0" stroke="#ddd" stroke-width="1" opacity="1"/><line transform="translate(0,0)" x2="600" y2="0" stroke="#ddd" stroke-width="1" opacity="1"/><line transform="translate(0,450)" x2="600" y2="0" stroke="#ddd" stroke-width="1" opacity="1"/></g></g><path class="foreground" aria-hidden="true" d="" pointer-events="none" display="none"/></g></g><g class="mark-group role-axis" role="graphics-symbol" aria-roledescription="axis" aria-label="X-axis titled '← black | white →' for a linear scale with values from −0.3 to 0.2"><g transform="translate(0.5,450.5)"><path class="background" aria-hidden="true" d="M0,0h0v0h0Z" pointer-events="none"/><g><g class="mark-rule role-axis-tick" pointer-events="none"><line transform="translate(144,0)" x2="0" y2="5" stroke="#888" stroke-width="1" opacity="1"/><line transform="translate(246,0)" x2="0" y2="5" stroke="#888" stroke-width="1" opacity="1"/><line transform="translate(349,0)" x2="0" y2="5" stroke="#888" stroke-width="1" opacity="1"/><line transform="translate(452,0)" x2="0" y2="5" stroke="#888" stroke-width="1" opacity="1"/><line transform="translate(41,0)" x2="0" y2="5" stroke="#888" stroke-width="1" opacity="1"/><line transform="translate(92,0)" x2="0" y2="5" stroke="#888" stroke-width="1" opacity="1"/><line transform="translate(195,0)" x2="0" y2="5" stroke="#888" stroke-width="1" opacity="1"/><line transform="translate(298,0)" x2="0" y2="5" stroke="#888" stroke-width="1" opacity="1"/><line transform="translate(401,0)" x2="0" y2="5" stroke="#888" stroke-width="1" opacity="1"/><line transform="translate(503,0)" x2="0" y2="5" stroke="#888" stroke-width="1" opacity="1"/><line transform="translate(555,0)" x2="0" y2="5" stroke="#888" stroke-width="1" opacity="1"/></g><g class="mark-text role-axis-label" pointer-events="none"><text text-anchor="middle" transform="translate(143.69931945579648,15)" font-family="sans-serif" font-size="10px" fill="#000" opacity="1">−0.20</text><text text-anchor="middle" transform="translate(246.49707379406914,15)" font-family="sans-serif" font-size="10px" fill="#000" opacity="1">−0.10</text><text text-anchor="middle" transform="translate(349.29482813234176,15)" font-family="sans-serif" font-size="10px" fill="#000" opacity="1">0.00</text><text text-anchor="middle" transform="translate(452.0925824706144,15)" font-family="sans-serif" font-size="10px" fill="#000" opacity="1">0.10</text><text text-anchor="middle" transform="translate(40.901565117523866,15)" font-family="sans-serif" font-size="10px" fill="#000" opacity="1">−0.30</text><text text-anchor="middle" transform="translate(92.30044228666017,15)" font-family="sans-serif" font-size="10px" fill="#000" opacity="1">−0.25</text><text text-anchor="middle" transform="translate(195.09819662493283,15)" font-family="sans-serif" font-size="10px" fill="#000" opacity="1">−0.15</text><text text-anchor="middle" transform="translate(297.8959509632055,15)" font-family="sans-serif" font-size="10px" fill="#000" opacity="1">−0.05</text><text text-anchor="middle" transform="translate(400.6937053014781,15)" font-family="sans-serif" font-size="10px" fill="#000" opacity="1">0.05</text><text text-anchor="middle" transform="translate(503.49145963975076,15)" font-family="sans-serif" font-size="10px" fill="#000" opacity="1">0.15</text><text text-anchor="middle" transform="translate(554.890336808887,15)" font-family="sans-serif" font-size="10px" fill="#000" opacity="1">0.20</text></g><g class="mark-rule role-axis-domain" pointer-events="none"><line transform="translate(0,0)" x2="600" y2="0" stroke="#888" stroke-width="1" opacity="1"/></g><g class="mark-text role-axis-title" pointer-events="none"><text text-anchor="middle" transform="translate(300,30)" font-family="sans-serif" font-size="11px" font-weight="bold" fill="#000" opacity="1">← black | white →</text></g></g><path class="foreground" aria-hidden="true" d="" pointer-events="none" display="none"/></g></g><g class="mark-group role-axis" role="graphics-symbol" aria-roledescription="axis" aria-label="Y-axis titled '← slave | master →' for a linear scale with values from −0.2 to 0.2"><g transform="translate(0.5,0.5)"><path class="background" aria-hidden="true" d="M0,0h0v0h0Z" pointer-events="none"/><g><g class="mark-rule role-axis-tick" pointer-events="none"><line transform="translate(0,337)" x2="-5" y2="0" stroke="#888" stroke-width="1" opacity="1"/><line transform="translate(0,225)" x2="-5" y2="0" stroke="#888" stroke-width="1" opacity="1"/><line transform="translate(0,112)" x2="-5" y2="0" stroke="#888" stroke-width="1" opacity="1"/><line transform="translate(0,394)" x2="-5" y2="0" stroke="#888" stroke-width="1" opacity="1"/><line transform="translate(0,281)" x2="-5" y2="0" stroke="#888" stroke-width="1" opacity="1"/><line transform="translate(0,169)" x2="-5" y2="0" stroke="#888" stroke-width="1" opacity="1"/><line transform="translate(0,56)" x2="-5" y2="0" stroke="#888" stroke-width="1" opacity="1"/><line transform="translate(0,0)" x2="-5" y2="0" stroke="#888" stroke-width="1" opacity="1"/><line transform="translate(0,450)" x2="-5" y2="0" stroke="#888" stroke-width="1" opacity="1"/></g><g class="mark-text role-axis-label" pointer-events="none"><text text-anchor="end" transform="translate(-7,340.35752427592604)" font-family="sans-serif" font-size="10px" fill="#000" opacity="1">−0.10</text><text text-anchor="end" transform="translate(-7,227.9224804684403)" font-family="sans-serif" font-size="10px" fill="#000" opacity="1">0.00</text><text text-anchor="end" transform="translate(-7,115.48743666095466)" font-family="sans-serif" font-size="10px" fill="#000" opacity="1">0.10</text><text text-anchor="end" transform="translate(-7,396.57504617966885)" font-family="sans-serif" font-size="10px" fill="#000" opacity="1">−0.15</text><text text-anchor="end" transform="translate(-7,284.1400023721831)" font-family="sans-serif" font-size="10px" fill="#000" opacity="1">−0.05</text><text text-anchor="end" transform="translate(-7,171.70495856469748)" font-family="sans-serif" font-size="10px" fill="#000" opacity="1">0.05</text><text text-anchor="end" transform="translate(-7,59.26991475721175)" font-family="sans-serif" font-size="10px" fill="#000" opacity="1">0.15</text><text text-anchor="end" transform="translate(-7,3.0523928534688967)" font-family="sans-serif" font-size="10px" fill="#000" opacity="1">0.20</text><text text-anchor="end" transform="translate(-7,452.7925680834117)" font-family="sans-serif" font-size="10px" fill="#000" opacity="1">−0.20</text></g><g class="mark-rule role-axis-domain" pointer-events="none"><line transform="translate(0,450)" x2="0" y2="-450" stroke="#888" stroke-width="1" opacity="1"/></g><g class="mark-text role-axis-title" pointer-events="none"><text text-anchor="middle" transform="translate(-38,225) rotate(-90) translate(0,-2)" font-family="sans-serif" font-size="11px" font-weight="bold" fill="#000" opacity="1">← slave | master →</text></g></g><path class="foreground" aria-hidden="true" d="" pointer-events="none" display="none"/></g></g><g class="mark-symbol role-mark layer_0_marks" clip-path="url(#clip3)" role="graphics-object" aria-roledescription="symbol mark container"><path aria-label="x_axis: −0.23703597486; y_axis: 0.0632652789354; name: man; original: man" role="graphics-symbol" aria-roledescription="circle" transform="translate(105.62716900223258,153.79013638245885)" d="M3.872983346207417,0A3.872983346207417,3.872983346207417,0,1,1,-3.872983346207417,0A3.872983346207417,3.872983346207417,0,1,1,3.872983346207417,0" fill="#4c78a8" stroke-width="2" opacity="0.7"/><path aria-label="x_axis: 0.00823418237269; y_axis: −0.0238188970834; name: woman; original: woman" role="graphics-symbol" aria-roledescription="circle" transform="translate(357.7593826995842,251.70326783862296)" d="M3.872983346207417,0A3.872983346207417,3.872983346207417,0,1,1,-3.872983346207417,0A3.872983346207417,3.872983346207417,0,1,1,3.872983346207417,0" fill="#4c78a8" stroke-width="2" opacity="0.7"/><path aria-label="x_axis: −0.0950567498803; y_axis: −0.158788874745; name: cotton; original: cotton" role="graphics-symbol" aria-roledescription="circle" transform="translate(251.57862390843044,403.4568213498095)" d="M3.872983346207417,0A3.872983346207417,3.872983346207417,0,1,1,-3.872983346207417,0A3.872983346207417,3.872983346207417,0,1,1,3.872983346207417,0" fill="#4c78a8" stroke-width="2" opacity="0.7"/><path aria-label="x_axis: 0.0297928228974; y_axis: −0.144513636827; name: slavery; original: slavery" role="graphics-symbol" aria-roledescription="circle" transform="translate(379.92118102488286,387.4064513431957)" d="M3.872983346207417,0A3.872983346207417,3.872983346207417,0,1,1,-3.872983346207417,0A3.872983346207417,3.872983346207417,0,1,1,3.872983346207417,0" fill="#4c78a8" stroke-width="2" opacity="0.7"/><path aria-label="x_axis: 0.0896625816822; y_axis: 0.0736619532108; name: freedom; original: freedom" role="graphics-symbol" aria-roledescription="circle" transform="translate(441.4659485833681,142.10063110639322)" d="M3.872983346207417,0A3.872983346207417,3.872983346207417,0,1,1,-3.872983346207417,0A3.872983346207417,3.872983346207417,0,1,1,3.872983346207417,0" fill="#4c78a8" stroke-width="2" opacity="0.7"/><path aria-label="x_axis: −0.0346419550478; y_axis: 0.057507339865; name: money; original: money" role="graphics-symbol" aria-roledescription="circle" transform="translate(313.68367628428234,160.26407769874245)" d="M3.872983346207417,0A3.872983346207417,3.872983346207417,0,1,1,-3.872983346207417,0A3.872983346207417,3.872983346207417,0,1,1,3.872983346207417,0" fill="#4c78a8" stroke-width="2" opacity="0.7"/></g><g class="mark-text role-mark layer_1_marks" clip-path="url(#clip4)" role="graphics-object" aria-roledescription="text mark container" pointer-events="none"><text aria-label="x_axis: −0.23703597486; y_axis: 0.0632652789354; original: man" role="graphics-symbol" aria-roledescription="text mark" text-anchor="middle" transform="translate(105.62716900223258,168.79013638245885)" font-family="sans-serif" font-size="11px" fill="black">man</text><text aria-label="x_axis: 0.00823418237269; y_axis: −0.0238188970834; original: woman" role="graphics-symbol" aria-roledescription="text mark" text-anchor="middle" transform="translate(357.7593826995842,266.703267838623)" font-family="sans-serif" font-size="11px" fill="black">woman</text><text aria-label="x_axis: −0.0950567498803; y_axis: −0.158788874745; original: cotton" role="graphics-symbol" aria-roledescription="text mark" text-anchor="middle" transform="translate(251.57862390843044,418.4568213498095)" font-family="sans-serif" font-size="11px" fill="black">cotton</text><text aria-label="x_axis: 0.0297928228974; y_axis: −0.144513636827; original: slavery" role="graphics-symbol" aria-roledescription="text mark" text-anchor="middle" transform="translate(379.92118102488286,402.4064513431957)" font-family="sans-serif" font-size="11px" fill="black">slavery</text><text aria-label="x_axis: 0.0896625816822; y_axis: 0.0736619532108; original: freedom" role="graphics-symbol" aria-roledescription="text mark" text-anchor="middle" transform="translate(441.4659485833681,157.10063110639322)" font-family="sans-serif" font-size="11px" fill="black">freedom</text><text aria-label="x_axis: −0.0346419550478; y_axis: 0.057507339865; original: money" role="graphics-symbol" aria-roledescription="text mark" text-anchor="middle" transform="translate(313.68367628428234,175.26407769874245)" font-family="sans-serif" font-size="11px" fill="black">money</text></g><g class="mark-group role-title"><g transform="translate(300,-21.947607146531105)"><path class="background" aria-hidden="true" d="M0,0h0v0h0Z" pointer-events="none"/><g><g class="mark-text role-title-text" role="graphics-symbol" aria-roledescription="title" aria-label="Title text 'WPA Slave Narrative Embeddings: Black-White vs. Slave-Master Axes'" pointer-events="none"><text text-anchor="middle" transform="translate(0,10)" font-family="sans-serif" font-size="13px" font-weight="bold" fill="#000" opacity="1">WPA Slave Narrative Embeddings: Black-White vs. Slave-Master Axes</text></g></g><path class="foreground" aria-hidden="true" d="" pointer-events="none" display="none"/></g></g></g><path class="foreground" aria-hidden="true" d="" display="none"/></g></g></g><defs><clipPath id="clip3"><rect x="0" y="0" width="600" height="450"/></clipPath><clipPath id="clip4"><rect x="0" y="0" width="600" height="450"/></clipPath></defs></svg>