<svg xmlns="http://www.w3.org/2000/svg" xmlns:xlink="http://www.w3.org/1999/xlink" version="1.1" class="marks" width="660" height="514" viewBox="0 0 660 514"><rect width="660" height="514" fill="white"/><g fill="none" stroke-miterlimit="10" transform="translate(54,27)"><g class="mark-group role-frame root" role="graphics-object" aria-roledescription="group mark container"><g transform="translate(0,0)"><path class="background" aria-hidden="true" d="M0.5,0.5h600v450h-600Z" stroke="#ddd"/><g><g class="mark-group role-axis" aria-hidden="true"><g transform="translate(0.5,450.5)"><path class="background" aria-hidden="true" d="M0,0h0v0h0Z" pointer-events="none"/><g><g class="mark-rule role-axis-grid" pointer-events="none"><line transform="translate(163,-450)" x2="0" y2="450" stroke="#ddd" stroke-width="1" opacity="1"/><line transform="translate(289,-450)" x2="0" y2="450" stroke="#ddd" stroke-width="1" opacity="1"/><line transform="translate(415,-450)" x2="0" y2="450" stroke="#ddd" stroke-width="1" opacity="1"/><line transform="translate(542,-450)" x2="0" y2="450" stroke="#ddd" stroke-width="1" opacity="1"/><line transform="translate(37,-450)" x2="0" y2="450" stroke="#ddd" stroke-width="1" opacity="1"/><line transform="translate(100,-450)" x2="0" y2="450" stroke="#ddd" stroke-width="1" opacity="1"/><line transform="translate(226,-450)" x2="0" y2="450" stroke="#ddd" stroke-width="1" opacity="1"/><line transform="translate(352,-450)" x2="0" y2="450" stroke="#ddd" stroke-width="1" opacity="1"/><line transform="translate(478,-450)" x2="0" y2="450" stroke="#ddd" stroke-width="1" opacity="1"/></g></g><path class="foreground" aria-hidden="true" d="" pointer-events="none" display="none"/></g></g><g class="mark-group role-axis" aria-hidden="true"><g transform="translate(0.5,0.5)"><path class="background" aria-hidden="true" d="M0,0h0v0h0Z" pointer-events="none"/><g><g class="mark-rule role-axis-grid" pointer-events="none"><line transform="translate(0,390)" x2="600" y2="0" stroke="#ddd" stroke-width="1" opacity="1"/><line transform="translate(0,295)" x2="600" y2="0" stroke="#ddd" stroke-width="1" opacity="1"/><line transform="translate(0,201)" x2="600" y2="0" stroke="#ddd" stroke-width="1" opacity="1"/><line transform="translate(0,106)" x2="600" y2="0" stroke="#ddd" stroke-width="1" opacity="1"/><line transform="translate(0,343)" x2="600" y2="0" stroke="#ddd" stroke-width="1" opacity="1"/><line transform="translate(0,248)" x2="600" y2="0" stroke="#ddd" stroke-width="1" opacity="1"/><line transform="translate(0,153)" x2="600" y2="0" stroke="#ddd" stroke-width="1" opacity="1"/><line transform="translate(0,59)" x2="600" y2="0" stroke="#ddd" stroke-width="1" opacity="1"/><line transform="translate(0,11)" x2="600" y2="0" stroke="#ddd" stroke-width="1" opacity="1"/><line transform="translate(0,437)" x2="600" y2="0" stroke="#ddd" stroke-width="1" opacity="1"/></g></g><path class="foreground" aria-hidden="true" d="" pointer-events="none" display="none"/></g></g><g class="mark-group role-axis" role="graphics-symbol" aria-roledescription="axis" aria-label="X-axis titled '← black | white →' for a linear scale with values from −0.3 to 0.1"><g transform="translate(0.5,450.5)"><path class="background" aria-hidden="true" d="M0,0h0v0h0Z" pointer-events="none"/><g><g class="mark-rule role-axis-tick" pointer-events="none"><line transform="translate(163,0)" x2="0" y2="5" stroke="#888" stroke-width="1" opacity="1"/><line transform="translate(289,0)" x2="0" y2="5" stroke="#888" stroke-width="1" opacity="1"/><line transform="translate(415,0)" x2="0" y2="5" stroke="#888" stroke-width="1" opacity="1"/><line transform="translate(542,0)" x2="0" y2="5" stroke="#888" stroke-width="1" opacity="1"/><line transform="translate(37,0)" x2="0" y2="5" stroke="#888" stroke-width="1" opacity="1"/><line transform="translate(100,0)" x2="0" y2="5" stroke="#888" stroke-width="1" opacity="1"/><line transform="translate(226,0)" x2="0" y2="5" stroke="#888" stroke-width="1" opacity="1"/><line transform="translate(352,0)" x2="0" y2="5" stroke="#888" stroke-width="1" opacity="1"/><line transform="translate(478,0)" x2="0" y2="5" stroke="#888" stroke-width="1" opacity="1"/></g><g class="mark-text role-axis-label" pointer-events="none"><text text-anchor="middle" transform="translate(163.03092177942514,15)" font-family="sans-serif" font-size="10px" fill="#000" opacity="1">−0.20</text><text text-anchor="middle" transform="translate(289.1998289603346,15)" font-family="sans-serif" font-size="10px" fill="#000" opacity="1">−0.10</text><text text-anchor="middle" transform="translate(415.3687361412441,15)" font-family="sans-serif" font-size="10px" fill="#000" opacity="1">0.00</text><text text-anchor="middle" transform="translate(541.5376433221536,15)" font-family="sans-serif" font-size="10px" fill="#000" opacity="1">0.10</text><text text-anchor="middle" transform="translate(36.86201459851572,15)" font-family="sans-serif" font-size="10px" fill="#000" opacity="1">−0.30</text><text text-anchor="middle" transform="translate(99.94646818897046,15)" font-family="sans-serif" font-size="10px" fill="#000" opacity="1">−0.25</text><text text-anchor="middle" transform="translate(226.11537536987993,15)" font-family="sans-serif" font-size="10px" fill="#000" opacity="1">−0.15</text><text text-anchor="middle" transform="translate(352.28428255078944,15)" font-family="sans-serif" font-size="10px" fill="#000" opacity="1">−0.05</text><text text-anchor="middle" transform="translate(478.45318973169884,15)" font-family="sans-serif" font-size="10px" fill="#000" opacity="1">0.05</text></g><g class="mark-rule role-axis-domain" pointer-events="none"><line transform="translate(0,0)" x2="600" y2="0" stroke="#888" stroke-width="1" opacity="1"/></g><g class="mark-text role-axis-title" pointer-events="none"><text text-anchor="middle" transform="translate(300,30)" font-family="sans-serif" font-size="11px" font-weight="bold" fill="#000" opacity="1">← black | white →</text></g></g><path class="foreground" aria-hidden="true" d="" pointer-events="none" display="none"/></g></g><g class="mark-group role-axis" role="graphics-symbol" aria-roledescription="axis" aria-label="Y-axis titled '← woman | man →' for a linear scale with values from −0.3 to 0.2"><g transform="translate(0.5,0.5)"><path class="background" aria-hidden="true" d="M0,0h0v0h0Z" pointer-events="none"/><g><g class="mark-rule role-axis-tick" pointer-events="none"><line transform="translate(0,390)" x2="-5" y2="0" stroke="#888" stroke-width="1" opacity="1"/><line transform="translate(0,295)" x2="-5" y2="0" stroke="#888" stroke-width="1" opacity="1"/><line transform="translate(0,201)" x2="-5" y2="0" stroke="#888" stroke-width="1" opacity="1"/><line transform="translate(0,106)" x2="-5" y2="0" stroke="#888" stroke-width="1" opacity="1"/><line transform="translate(0,343)" x2="-5" y2="0" stroke="#888" stroke-width="1" opacity="1"/><line transform="translate(0,248)" x2="-5" y2="0" stroke="#888" stroke-width="1" opacity="1"/><line transform="translate(0,153)" x2="-5" y2="0" stroke="#888" stroke-width="1" opacity="1"/><line transform="translate(0,59)" x2="-5" y2="0" stroke="#888" stroke-width="1" opacity="1"/><line transform="translate(0,11)" x2="-5" y2="0" stroke="#888" stroke-width="1" opacity="1"/><line transform="translate(0,437)" x2="-5" y2="0" stroke="#888" stroke-width="1" opacity="1"/></g><g class="mark-text role-axis-label" pointer-events="none"><text text-anchor="end" transform="translate(-7,392.84856889796043)" font-family="sans-serif" font-size="10px" fill="#000" opacity="1">−0.20</text><text text-anchor="end" transform="translate(-7,298.22188851227827)" font-family="sans-serif" font-size="10px" fill="#000" opacity="1">−0.10</text><text text-anchor="end" transform="translate(-7,203.59520812659613)" font-family="sans-serif" font-size="10px" fill="#000" opacity="1">0.00</text><text text-anchor="end" transform="translate(-7,108.96852774091394)" font-family="sans-serif" font-size="10px" fill="#000" opacity="1">0.10</text><text text-anchor="end" transform="translate(-7,345.5352287051194)" font-family="sans-serif" font-size="10px" fill="#000" opacity="1">−0.15</text><text text-anchor="end" transform="translate(-7,250.90854831943716)" font-family="sans-serif" font-size="10px" fill="#000" opacity="1">−0.05</text><text text-anchor="end" transform="translate(-7,156.2818679337551)" font-family="sans-serif" font-size="10px" fill="#000" opacity="1">0.05</text><text text-anchor="end" transform="translate(-7,61.65518754807294)" font-family="sans-serif" font-size="10px" fill="#000" opacity="1">0.15</text><text text-anchor="end" transform="translate(-7,14.341847355231838)" font-family="sans-serif" font-size="10px" fill="#000" opacity="1">0.20</text><text text-anchor="end" transform="translate(-7,440.1619090908015)" font-family="sans-serif" font-size="10px" fill="#000" opacity="1">−0.25</text></g><g class="mark-rule role-axis-domain" pointer-events="none"><line transform="translate(0,450)" x2="0" y2="-450" stroke="#888" stroke-width="1" opacity="1"/></g><g class="mark-text role-axis-title" pointer-events="none"><text text-anchor="middle" transform="translate(-38,225) rotate(-90) translate(0,-2)" font-family="sans-serif" font-size="11px" font-weight="bold" fill="#000" opacity="1">← woman | man →</text></g></g><path class="foreground" aria-hidden="true" d="" pointer-events="none" display="none"/></g></g><g class="mark-symbol role-mark layer_0_marks" clip-path="url(#clip7)" role="graphics-object" aria-roledescription="symbol mark container"><path aria-label="x_axis: −0.277668058872; y_axis: 0.0283077117056; name: slave; original: slave" role="graphics-symbol" aria-roledescription="circle" transform="translate(65.03798067171614,173.8085602464704)" d="M3.872983346207417,0A3.872983346207417,3.872983346207417,0,1,1,-3.872983346207417,0A3.872983346207417,3.872983346207417,0,1,1,3.872983346207417,0" fill="#4c78a8" stroke-width="2" opacity="0.7"/><path aria-label="x_axis: −0.0669933408499; y_axis: 0.0946719348431; name: master; original: master" role="graphics-symbol" aria-roledescription="circle" transform="translate(330.84397010697325,111.01029892770931)" d="M3.872983346207417,0A3.872983346207417,3.872983346207417,0,1,1,-3.872983346207417,0A3.872983346207417,3.872983346207417,0,1,1,3.872983346207417,0" fill="#4c78a8" stroke-width="2" opacity="0.7"/><path aria-label="x_axis: −0.046279232949; y_axis: 0.110518999398; name: land; original: land" role="graphics-symbol" aria-roledescription="circle" transform="translate(356.97873367776015,96.01474780102886)" d="M3.872983346207417,0A3.872983346207417,3.872983346207417,0,1,1,-3.872983346207417,0A3.872983346207417,3.872983346207417,0,1,1,3.872983346207417,0" fill="#4c78a8" stroke-width="2" opacity="0.7"/><path aria-label="x_axis: −0.0950567498803; y_axis: −0.0348306410015; name: cotton; original: cotton" role="graphics-symbol" aria-roledescription="circle" transform="translate(295.43667361556163,233.55428746333482)" d="M3.872983346207417,0A3.872983346207417,3.872983346207417,0,1,1,-3.872983346207417,0A3.872983346207417,3.872983346207417,0,1,1,3.872983346207417,0" fill="#4c78a8" stroke-width="2" opacity="0.7"/><path aria-label="x_axis: 0.0896625816822; y_axis: 0.0497587509453; name: freedom; original: freedom" role="graphics-symbol" aria-roledescription="circle" transform="translate(528.4950355998727,153.51015390565146)" d="M3.872983346207417,0A3.872983346207417,3.872983346207417,0,1,1,-3.872983346207417,0A3.872983346207417,3.872983346207417,0,1,1,3.872983346207417,0" fill="#4c78a8" stroke-width="2" opacity="0.7"/><path aria-label="x_axis: −0.0408640876412; y_axis: 0.0632423534989; name: overseer; original: overseer" role="graphics-symbol" aria-roledescription="circle" transform="translate(363.8109633348436,140.75106841277497)" d="M3.872983346207417,0A3.872983346207417,3.872983346207417,0,1,1,-3.872983346207417,0A3.872983346207417,3.872983346207417,0,1,1,3.872983346207417,0" fill="#4c78a8" stroke-width="2" opacity="0.7"/><path aria-label="x_axis: −0.0152797456831; y_axis: −0.151771143079; name: care; original: care" role="graphics-symbol" aria-roledescription="circle" transform="translate(396.09044799288745,344.21120260547235)" d="M3.872983346207417,0A3.872983346207417,3.872983346207417,0,1,1,-3.872983346207417,0A3.872983346207417,3.872983346207417,0,1,1,3.872983346207417,0" fill="#4c78a8" stroke-width="2" opacity="0.7"/><path aria-label="x_axis: −0.0785192400217; y_axis: −0.108685024083; name: child; original: child" role="graphics-symbol" aria-roledescription="circle" transform="translate(316.3018690791028,303.4402384923971)" d="M3.872983346207417,0A3.872983346207417,3.872983346207417,0,1,1,-3.872983346207417,0A3.872983346207417,3.872983346207417,0,1,1,3.872983346207417,0" fill="#4c78a8" stroke-width="2" opacity="0.7"/><path aria-label="x_axis: 0.0182806402445; y_axis: −0.106294557452; name: cook; original: cook" role="graphics-symbol" aria-roledescription="circle" transform="translate(438.4332201633831,301.17821927426644)" d="M3.872983346207417,0A3.872983346207417,3.872983346207417,0,1,1,-3.872983346207417,0A3.872983346207417,3.872983346207417,0,1,1,3.872983346207417,0" fill="#4c78a8" stroke-width="2" opacity="0.7"/><path aria-label="x_axis: 0.0976454094052; y_axis: −0.20254188776; name: clean; original: clean" role="graphics-symbol" aria-roledescription="circle" transform="translate(538.5668821001497,392.253872904532)" d="M3.872983346207417,0A3.872983346207417,3.872983346207417,0,1,1,-3.872983346207417,0A3.872983346207417,3.872983346207417,0,1,1,3.872983346207417,0" fill="#4c78a8" stroke-width="2" opacity="0.7"/><path aria-label="x_axis: −0.0346419550478; y_axis: 0.140932038426; name: money; original: money" role="graphics-symbol" aria-roledescription="circle" transform="translate(371.6613600312751,67.23589856382057)" d="M3.872983346207417,0A3.872983346207417,3.872983346207417,0,1,1,-3.872983346207417,0A3.872983346207417,3.872983346207417,0,1,1,3.872983346207417,0" fill="#4c78a8" stroke-width="2" opacity="0.7"/></g><g class="mark-text role-mark layer_1_marks" clip-path="url(#clip8)" role="graphics-object" aria-roledescription="text mark container" pointer-events="none"><text aria-label="x_axis: −0.277668058872; y_axis: 0.0283077117056; original: slave" role="graphics-symbol" aria-roledescription="text mark" text-anchor="middle" transform="translate(65.03798067171614,188.8085602464704)" font-family="sans-serif" font-size="11px" fill="black">slave</text><text aria-label="x_axis: −0.0669933408499; y_axis: 0.0946719348431; original: master" role="graphics-symbol" aria-roledescription="text mark" text-anchor="middle" transform="translate(330.84397010697325,126.01029892770931)" font-family="sans-serif" font-size="11px" fill="black">master</text><text aria-label="x_axis: −0.046279232949; y_axis: 0.110518999398; original: land" role="graphics-symbol" aria-roledescription="text mark" text-anchor="middle" transform="translate(356.97873367776015,111.01474780102886)" font-family="sans-serif" font-size="11px" fill="black">land</text><text aria-label="x_axis: −0.0950567498803; y_axis: −0.0348306410015; original: cotton" role="graphics-symbol" aria-roledescription="text mark" text-anchor="middle" transform="translate(295.43667361556163,248.55428746333482)" font-family="sans-serif" font-size="11px" fill="black">cotton</text><text aria-label="x_axis: 0.0896625816822; y_axis: 0.0497587509453; original: freedom" role="graphics-symbol" aria-roledescription="text mark" text-anchor="middle" transform="translate(528.4950355998727,168.51015390565146)" font-family="sans-serif" font-size="11px" fill="black">freedom</text><text aria-label="x_axis: −0.0408640876412; y_axis: 0.0632423534989; original: overseer" role="graphics-symbol" aria-roledescription="text mark" text-anchor="middle" transform="translate(363.8109633348436,155.75106841277497)" font-family="sans-serif" font-size="11px" fill="black">overseer</text><text aria-label="x_axis: −0.0152797456831; y_axis: −0.151771143079; original: care" role="graphics-symbol" aria-roledescription="text mark" text-anchor="middle" transform="translate(396.09044799288745,359.21120260547235)" font-family="sans-serif" font-size="11px" fill="black">care</text><text aria-label="x_axis: −0.0785192400217; y_axis: −0.108685024083; original: child" role="graphics-symbol" aria-roledescription="text mark" text-anchor="middle" transform="translate(316.3018690791028,318.4402384923971)" font-family="sans-serif" font-size="11px" fill="black">child</text><text aria-label="x_axis: 0.0182806402445; y_axis: −0.106294557452; original: cook" role="graphics-symbol" aria-roledescription="text mark" text-anchor="middle" transform="translate(438.4332201633831,316.17821927426644)" font-family="sans-serif" font-size="11px" fill="black">cook</text><text aria-label="x_axis: 0.0976454094052; y_axis: −0.20254188776; original: clean" role="graphics-symbol" aria-roledescription="text mark" text-anchor="middle" transform="translate(538.5668821001497,407.253872904532)" font-family="sans-serif" font-size="11px" fill="black">clean</text><text aria-label="x_axis: −0.0346419550478; y_axis: 0.140932038426; original: money" role="graphics-symbol" aria-roledescription="text mark" text-anchor="middle" transform="translate(371.6613600312751,82.23589856382057)" font-family="sans-serif" font-size="11px" fill="black">money</text></g><g class="mark-group role-title"><g transform="translate(300,-17)"><path class="background" aria-hidden="true" d="M0,0h0v0h0Z" pointer-events="none"/><g><g class="mark-text role-title-text" role="graphics-symbol" aria-roledescription="title" aria-label="Title text 'Race vs. Gender in the WPA Slave Narratives Collection'" pointer-events="none"><text text-anchor="middle" transform="translate(0,10)" font-family="sans-serif" font-size="13px" font-weight="bold" fill="#000" opacity="1">Race vs. Gender in the WPA Slave Narratives Collection</text></g></g><path class="foreground" aria-hidden="true" d="" pointer-events="none" display="none"/></g></g></g><path class="foreground" aria-hidden="true" d="" display="none"/></g></g></g><defs><clipPath id="clip7"><rect x="0" y="0" width="600" height="450"/></clipPath><clipPath id="clip8"><rect x="0" y="0" width="600" height="450"/></clipPath></defs></svg>